<svg id="Capa_1" data-name="Capa 1" xmlns="http://www.w3.org/2000/svg" viewBox="0 0 200 32"><title>logo-white</title><g style="opacity:0.5"><path d="M119.2,12.22a.66.66,0,0,0-.2.48v6.36a.71.71,0,0,0,.24.51.85.85,0,0,0,.56.22.8.8,0,0,0,.53-.18.72.72,0,0,0,.26-.48V12.77a.66.66,0,0,0-.2-.48.78.78,0,0,0-.26-.2.85.85,0,0,0-.32-.08.86.86,0,0,0-.33,0A.8.8,0,0,0,119.2,12.22Z" transform="translate(0 0)" style="fill:#fff"/><path d="M129.93,12.24a.66.66,0,0,0-.2.48v4.78l-3.84-5.09a1.11,1.11,0,0,0-.38-.3A1.21,1.21,0,0,0,125,12h-.13a1.11,1.11,0,0,0-.73.3.9.9,0,0,0-.21.31.84.84,0,0,0-.06.36v6.18a.66.66,0,0,0,.2.48,1,1,0,0,0,1.13,0,.72.72,0,0,0,.26-.48V14.36l3.91,5.15a.66.66,0,0,0,.33.24,1.31,1.31,0,0,0,.46.12h.13a1.47,1.47,0,0,0,.73-.24.94.94,0,0,0,.33-.67V12.79a.66.66,0,0,0-.2-.48.86.86,0,0,0-.28-.2.93.93,0,0,0-.34-.08.94.94,0,0,0-.35,0,.88.88,0,0,0-.3.17Z" transform="translate(0 0)" style="fill:#fff"/><path d="M142.36,12a1.31,1.31,0,0,0-.46.12.59.59,0,0,0-.17.16.53.53,0,0,0-.09.21l-2.38,5.45-2.38-5.45a1.26,1.26,0,0,0-.26-.36,1,1,0,0,0-.46-.12,1.13,1.13,0,0,0-.6.18.73.73,0,0,0-.16.25.68.68,0,0,0,0,.29c0,.12,0,.18.07.24l2.78,6.18a.92.92,0,0,0,.36.44,1.06,1.06,0,0,0,.57.17h.26a1.06,1.06,0,0,0,.57-.17.92.92,0,0,0,.36-.44L143.09,13a.34.34,0,0,0,.07-.24.59.59,0,0,0,0-.29.64.64,0,0,0-.17-.25.72.72,0,0,0-.27-.16.76.76,0,0,0-.32,0Z" transform="translate(0 0)" style="fill:#fff"/><path d="M152.07,13.39a.72.72,0,0,0,.29,0,.67.67,0,0,0,.25-.14.6.6,0,0,0,.16-.23.56.56,0,0,0,0-.27.74.74,0,0,0-.22-.48.88.88,0,0,0-.51-.24h-4.5a.87.87,0,0,0-.33.06.81.81,0,0,0-.27.18.66.66,0,0,0-.2.48V19a.66.66,0,0,0,.2.48.8.8,0,0,0,.53.18H152a.72.72,0,0,0,.29,0,.67.67,0,0,0,.25-.14.6.6,0,0,0,.16-.23.56.56,0,0,0,0-.27.64.64,0,0,0-.22-.47.77.77,0,0,0-.51-.2h-3.71V16.48h3.31a.72.72,0,0,0,.29,0,.67.67,0,0,0,.25-.14.6.6,0,0,0,.16-.23.56.56,0,0,0,0-.27.74.74,0,0,0-.22-.48.88.88,0,0,0-.51-.24h-3.31V13.33Z" transform="translate(0 0)" style="fill:#fff"/><path d="M160.79,15.75a13.21,13.21,0,0,0-1.46-.42c-.33-.06-.73-.18-1.06-.24a2.76,2.76,0,0,1-.6-.3.56.56,0,0,1-.15-.19.51.51,0,0,1,0-.23.65.65,0,0,1,.09-.39.73.73,0,0,1,.31-.28,4.36,4.36,0,0,1,3,0,.72.72,0,0,0,.43,0,.67.67,0,0,0,.36-.22.66.66,0,0,0,.2-.48.67.67,0,0,0-.15-.41.77.77,0,0,0-.38-.26,7.4,7.4,0,0,0-2.32-.36,5.39,5.39,0,0,0-1.72.3,2.55,2.55,0,0,0-1.13.85,2.05,2.05,0,0,0-.4,1.21,1.8,1.8,0,0,0,.46,1.27,2.37,2.37,0,0,0,1.06.67,11,11,0,0,0,1.52.42,7.3,7.3,0,0,1,1.06.3,1.38,1.38,0,0,1,.53.24.38.38,0,0,1,.16.15.34.34,0,0,1,0,.21c0,.24,0,1-1.72,1a5.08,5.08,0,0,1-2.12-.42.82.82,0,0,0-.56,0,.74.74,0,0,0-.43.33.42.42,0,0,0-.07.3.61.61,0,0,0,.13.36.66.66,0,0,0,.33.24,7.32,7.32,0,0,0,2.78.54,3.53,3.53,0,0,0,1.59-.3,2.44,2.44,0,0,0,1.13-.79,2.05,2.05,0,0,0,.4-1.21,1.8,1.8,0,0,0-.46-1.27,1.84,1.84,0,0,0-.86-.61Z" transform="translate(0 0)" style="fill:#fff"/><path d="M171.85,12h-5.56a.72.72,0,0,0-.29,0,.67.67,0,0,0-.25.14.6.6,0,0,0-.16.23.56.56,0,0,0,0,.27.64.64,0,0,0,.22.47.77.77,0,0,0,.51.2h2V19a.71.71,0,0,0,.24.51.85.85,0,0,0,.56.22.8.8,0,0,0,.53-.18.72.72,0,0,0,.26-.48V13.4h2.05a.72.72,0,0,0,.29,0,.67.67,0,0,0,.25-.14.6.6,0,0,0,.16-.23.56.56,0,0,0,0-.27.75.75,0,0,0-.25-.5A.89.89,0,0,0,171.85,12Z" transform="translate(0 0)" style="fill:#fff"/><path d="M176.36,12.22a.66.66,0,0,0-.2.48v6.36a.71.71,0,0,0,.24.51.85.85,0,0,0,.56.22.8.8,0,0,0,.53-.18.72.72,0,0,0,.26-.48V12.77a.51.51,0,0,0-.06-.27.57.57,0,0,0-.2-.21.7.7,0,0,0-.24-.2.77.77,0,0,0-.31-.08.78.78,0,0,0-.32,0,.72.72,0,0,0-.26.17Z" transform="translate(0 0)" style="fill:#fff"/><path d="M187.91,12.24a.66.66,0,0,0-.2.48v4.78l-3.84-5.09a1.11,1.11,0,0,0-.38-.3A1.21,1.21,0,0,0,183,12h-.13a1.11,1.11,0,0,0-.73.3.9.9,0,0,0-.21.31.84.84,0,0,0-.06.36v6.18a.66.66,0,0,0,.2.48,1,1,0,0,0,1.13,0,.72.72,0,0,0,.26-.48V14.36l3.91,5.15a.66.66,0,0,0,.33.24,1.31,1.31,0,0,0,.46.12h.13a1.47,1.47,0,0,0,.73-.24.94.94,0,0,0,.33-.67V12.79a.51.51,0,0,0-.06-.27.57.57,0,0,0-.2-.21.78.78,0,0,0-.26-.2.85.85,0,0,0-.32-.08.86.86,0,0,0-.33,0,.8.8,0,0,0-.28.17Z" transform="translate(0 0)" style="fill:#fff"/><path d="M199.8,15.64a.84.84,0,0,0-.27-.18.91.91,0,0,0-.32-.07h-1.46a.76.76,0,0,0-.52.2.63.63,0,0,0,0,.94.76.76,0,0,0,.52.2h.79v1.45a3.8,3.8,0,0,1-3.25,0,2.14,2.14,0,0,1-.93-.91,2.84,2.84,0,0,1,0-2.72,1.89,1.89,0,0,1,1-.85,3.6,3.6,0,0,1,2.52-.18,4.77,4.77,0,0,1,1,.42.88.88,0,0,0,.48.07.85.85,0,0,0,.44-.19.66.66,0,0,0,.2-.48.81.81,0,0,0-.13-.36.5.5,0,0,0-.26-.24,5,5,0,0,0-1.32-.54,4.76,4.76,0,0,0-1.59-.18,5.15,5.15,0,0,0-2.12.48A3.26,3.26,0,0,0,193,13.88a3.23,3.23,0,0,0-.53,2.06A4.55,4.55,0,0,0,193,18a3.26,3.26,0,0,0,1.52,1.39,4.6,4.6,0,0,0,2.19.48,7.06,7.06,0,0,0,2.72-.61.61.61,0,0,0,.25-.14.54.54,0,0,0,.15-.23.84.84,0,0,0,.13-.54V16a.91.91,0,0,0-.2-.36Z" transform="translate(0 0)" style="fill:#fff"/></g><path d="M37,29.77a2.22,2.22,0,0,1-1.57-.64,2.19,2.19,0,0,1-.65-1.55A2.07,2.07,0,0,1,35.41,26L45.59,15.92l-10-10a2.18,2.18,0,0,1,.09-3,2.22,2.22,0,0,1,3-.06l11.6,11.52a2.17,2.17,0,0,1,0,3.09L38.58,29.11A2.37,2.37,0,0,1,37,29.77Z" transform="translate(0 0)" style="fill:#fff"/><path d="M68.89,29.77a2.1,2.1,0,0,1-1.55-.66L55.6,17.49a2.17,2.17,0,0,1,0-3.09h0L67.17,2.92a2.22,2.22,0,0,1,3,.09,2.18,2.18,0,0,1,.06,3L60.26,16,70.44,26.09a2.17,2.17,0,0,1,0,3.09,2.47,2.47,0,0,1-1.55.59Z" transform="translate(0 0)" style="fill:#fff"/><path d="M16.11,32A16.17,16.17,0,0,1,4.72,27.31a15.92,15.92,0,0,1,0-22.63A16.17,16.17,0,0,1,16.11,0h0A16,16,0,0,1,27.45,4.63l.1.1a2.22,2.22,0,0,1,0,3.05L13.76,21.37a2.22,2.22,0,0,1-3-.09,2.18,2.18,0,0,1-.06-3l12-11.91a11.74,11.74,0,0,0-17,4.42,11.56,11.56,0,0,0,1.24,12.4,11.76,11.76,0,0,0,17.53,1,2.2,2.2,0,0,1,3.14,3.09A16.07,16.07,0,0,1,16.11,32Z" transform="translate(0 0)" style="fill:#fff"/><path d="M92,32a16.13,16.13,0,0,1-12.64-6.14,15.95,15.95,0,0,1,6-24.41,16.19,16.19,0,0,1,14.06.38,2.18,2.18,0,0,1-.23,4,2.22,2.22,0,0,1-1.68-.1s-.07,0-.1-.07A11.89,11.89,0,0,0,92,4.4a11.76,11.76,0,0,0-6.5,2,11.6,11.6,0,0,0,4.22,21.06,11.73,11.73,0,0,0,12-4.94,11.56,11.56,0,0,0,2-6.45,11.78,11.78,0,0,0-1.32-5.38,2.18,2.18,0,0,1,.83-3,2.21,2.21,0,0,1,3,.82.25.25,0,0,1,.07.13,15.91,15.91,0,0,1-1.93,17.69,16.09,16.09,0,0,1-4.91,3.91A17.26,17.26,0,0,1,92,32Z" transform="translate(0 0)" style="fill:#fff"/></svg>